<svg width="28" height="27" viewBox="0 0 28 27" fill="none" xmlns="http://www.w3.org/2000/svg">
    <path d="M20.9857 5.10186H22.1969V6.31315C22.1969 6.63441 22.3245 6.9425 22.5516 7.16966C22.7788 7.39683 23.0868 7.52444 23.408 7.52444C23.7292 7.52444 24.0373 7.39683 24.2644 7.16966C24.4916 6.9425 24.6192 6.63441 24.6192 6.31315V5.10186H25.8303C26.1515 5.10186 26.4596 4.97424 26.6867 4.74708C26.9139 4.51992 27.0415 4.21183 27.0415 3.89057C27.0415 3.56932 26.9139 3.26122 26.6867 3.03406C26.4596 2.8069 26.1515 2.67928 25.8303 2.67928H24.6192V1.46799C24.6192 1.14673 24.4916 0.838638 24.2644 0.611477C24.0373 0.384316 23.7292 0.256698 23.408 0.256698C23.0868 0.256698 22.7788 0.384316 22.5516 0.611477C22.3245 0.838638 22.1969 1.14673 22.1969 1.46799V2.67928H20.9857C20.6645 2.67928 20.3565 2.8069 20.1293 3.03406C19.9022 3.26122 19.7746 3.56932 19.7746 3.89057C19.7746 4.21183 19.9022 4.51992 20.1293 4.74708C20.3565 4.97424 20.6645 5.10186 20.9857 5.10186ZM7.66313 7.52444V19.6374C7.66313 19.9586 7.79073 20.2667 8.01786 20.4939C8.245 20.721 8.55306 20.8486 8.87427 20.8486C9.19549 20.8486 9.50355 20.721 9.73068 20.4939C9.95782 20.2667 10.0854 19.9586 10.0854 19.6374V7.52444C10.0854 7.20319 9.95782 6.89509 9.73068 6.66793C9.50355 6.44077 9.19549 6.31315 8.87427 6.31315C8.55306 6.31315 8.245 6.44077 8.01786 6.66793C7.79073 6.89509 7.66313 7.20319 7.66313 7.52444ZM25.3459 9.94703C25.19 9.97881 25.0419 10.041 24.91 10.13C24.7782 10.2191 24.6652 10.3332 24.5774 10.466C24.4897 10.5987 24.429 10.7474 24.3988 10.9036C24.3685 11.0598 24.3693 11.2205 24.4012 11.3764C24.8741 13.6732 24.5938 16.0613 23.602 18.1863C22.6101 20.3112 20.9596 22.0596 18.8955 23.172C16.8313 24.2844 14.4635 24.7014 12.1435 24.3612C9.82357 24.021 7.67513 22.9417 6.01714 21.2835C4.35914 19.6253 3.27997 17.4767 2.93982 15.1564C2.59966 12.8362 3.01666 10.4681 4.12892 8.40368C5.24117 6.33926 6.98938 4.68857 9.11405 3.69662C11.2387 2.70468 13.6266 2.42438 15.9231 2.89731C16.2444 2.96156 16.5779 2.89557 16.8505 2.71384C17.1231 2.53211 17.3123 2.24953 17.3765 1.92828C17.4408 1.60703 17.3748 1.27341 17.1931 1.00081C17.0114 0.728219 16.7288 0.538981 16.4076 0.474731C15.5213 0.309573 14.6202 0.236507 13.7189 0.256698C11.0839 0.256698 8.5081 1.03815 6.31721 2.50223C4.12632 3.96631 2.41873 6.04727 1.41037 8.48195C0.402013 10.9166 0.138181 13.5957 0.652236 16.1803C1.16629 18.765 2.43515 21.1391 4.29835 23.0025C6.16155 24.866 8.53541 26.135 11.1197 26.6491C13.7041 27.1632 16.3828 26.8993 18.8172 25.8909C21.2516 24.8824 23.3323 23.1746 24.7962 20.9834C26.2601 18.7923 27.0415 16.2162 27.0415 13.5809C27.044 12.6858 26.9548 11.7929 26.775 10.9161C26.746 10.758 26.6858 10.6073 26.598 10.4727C26.5102 10.3381 26.3964 10.2223 26.2634 10.1321C26.1304 10.0419 25.9808 9.97912 25.8232 9.94734C25.6657 9.91556 25.5034 9.91546 25.3459 9.94703ZM12.5077 9.94703V11.1583C12.5131 12.0547 12.8495 12.9176 13.4524 13.5809C12.8495 14.2442 12.5131 15.1071 12.5077 16.0035V17.2148C12.5077 18.1785 12.8905 19.1028 13.5719 19.7843C14.2533 20.4658 15.1775 20.8486 16.1412 20.8486H17.3523C18.3159 20.8486 19.2401 20.4658 19.9215 19.7843C20.6029 19.1028 20.9857 18.1785 20.9857 17.2148V16.0035C20.9804 15.1071 20.6439 14.2442 20.041 13.5809C20.6439 12.9176 20.9804 12.0547 20.9857 11.1583V9.94703C20.9857 8.98326 20.6029 8.05897 19.9215 7.37749C19.2401 6.69601 18.3159 6.31315 17.3523 6.31315H16.1412C15.1775 6.31315 14.2533 6.69601 13.5719 7.37749C12.8905 8.05897 12.5077 8.98326 12.5077 9.94703ZM18.5634 17.2148C18.5634 17.536 18.4358 17.8441 18.2087 18.0713C17.9816 18.2984 17.6735 18.4261 17.3523 18.4261H16.1412C15.8199 18.4261 15.5119 18.2984 15.2847 18.0713C15.0576 17.8441 14.93 17.536 14.93 17.2148V16.0035C14.93 15.6822 15.0576 15.3741 15.2847 15.147C15.5119 14.9198 15.8199 14.7922 16.1412 14.7922H17.3523C17.6735 14.7922 17.9816 14.9198 18.2087 15.147C18.4358 15.3741 18.5634 15.6822 18.5634 16.0035V17.2148ZM18.5634 9.94703V11.1583C18.5634 11.4796 18.4358 11.7877 18.2087 12.0148C17.9816 12.242 17.6735 12.3696 17.3523 12.3696H16.1412C15.8199 12.3696 15.5119 12.242 15.2847 12.0148C15.0576 11.7877 14.93 11.4796 14.93 11.1583V9.94703C14.93 9.62577 15.0576 9.31767 15.2847 9.09051C15.5119 8.86335 15.8199 8.73573 16.1412 8.73573H17.3523C17.6735 8.73573 17.9816 8.86335 18.2087 9.09051C18.4358 9.31767 18.5634 9.62577 18.5634 9.94703Z"
          fill="white"/>
</svg>
